<svg width="192" height="94" viewBox="0 0 192 94" fill="none" xmlns="http://www.w3.org/2000/svg">
<path d="M7.01774 47.644L21.7117 33.446L7.01774 19.248H14.8917L27.8497 31.896V35.058L14.8917 47.644H7.01774ZM48.8806 50.744C45.8219 50.744 43.1766 50.186 40.9446 49.07C38.7126 47.954 36.9559 46.4453 35.6746 44.544C34.3932 42.6427 33.6079 40.4933 33.3186 38.096H39.3946C39.8079 40.2867 40.8619 42.064 42.5566 43.428C44.2512 44.792 46.3799 45.474 48.9426 45.474C50.8026 45.474 52.4146 45.0193 53.7786 44.11C55.1839 43.2007 56.2586 41.9813 57.0026 40.452C57.7466 38.8813 58.1186 37.166 58.1186 35.306C58.1186 33.2807 57.7259 31.524 56.9406 30.036C56.1966 28.548 55.1426 27.3907 53.7786 26.564C52.4146 25.7373 50.8439 25.324 49.0666 25.324C46.8759 25.324 44.9952 25.8407 43.4246 26.874C41.8539 27.866 40.7172 29.168 40.0146 30.78H34.0626L37.7826 6.6H60.9706V11.994H42.4946L40.1386 24.084C41.1719 22.9267 42.5152 21.9967 44.1686 21.294C45.8219 20.55 47.7439 20.178 49.9346 20.178C52.1252 20.178 54.0886 20.5707 55.8246 21.356C57.5606 22.1413 59.0486 23.216 60.2886 24.58C61.5286 25.944 62.4792 27.5353 63.1406 29.354C63.8019 31.1727 64.1326 33.136 64.1326 35.244C64.1326 37.3933 63.7812 39.4187 63.0786 41.32C62.3759 43.18 61.3632 44.8333 60.0406 46.28C58.7179 47.6853 57.1059 48.7807 55.2046 49.566C53.3446 50.3513 51.2366 50.744 48.8806 50.744ZM81.9568 50.744C78.7741 50.744 76.0875 50.1447 73.8968 48.946C71.7061 47.7473 69.9495 46.156 68.6268 44.172C67.3041 42.188 66.3328 39.956 65.7128 37.476C65.1341 34.996 64.8448 32.4747 64.8448 29.912C64.8448 25.1173 65.5061 20.922 66.8288 17.326C68.1928 13.73 70.1355 10.9193 72.6568 8.894C75.2195 6.86867 78.2781 5.856 81.8328 5.856C84.6435 5.856 87.0408 6.414 89.0248 7.53C91.0501 8.646 92.6208 10.1133 93.7368 11.932C94.8941 13.7507 95.5968 15.776 95.8448 18.008H90.0788C89.7068 15.8173 88.7768 14.1227 87.2888 12.924C85.8421 11.7253 83.9821 11.126 81.7088 11.126C79.7248 11.126 77.9268 11.7667 76.3148 13.048C74.7028 14.288 73.4008 16.1893 72.4088 18.752C71.4581 21.3147 70.9208 24.58 70.7968 28.548C70.7968 28.5893 70.7968 28.6307 70.7968 28.672C70.7968 28.7133 70.7968 28.7753 70.7968 28.858C71.4581 27.618 72.3675 26.502 73.5248 25.51C74.7235 24.4767 76.1081 23.6707 77.6788 23.092C79.2495 22.472 80.9855 22.162 82.8868 22.162C85.3255 22.162 87.6195 22.7407 89.7688 23.898C91.9181 25.014 93.6541 26.626 94.9768 28.734C96.3408 30.842 97.0228 33.3013 97.0228 36.112C97.0228 38.6333 96.4028 41.01 95.1628 43.242C93.9641 45.474 92.2281 47.2927 89.9548 48.698C87.6815 50.062 85.0155 50.744 81.9568 50.744ZM81.5228 45.35C83.3415 45.35 84.9535 44.9573 86.3588 44.172C87.7641 43.3867 88.8595 42.3327 89.6448 41.01C90.4715 39.646 90.8848 38.096 90.8848 36.36C90.8848 34.5827 90.4715 33.0327 89.6448 31.71C88.8595 30.346 87.7435 29.292 86.2968 28.548C84.8915 27.804 83.3001 27.432 81.5228 27.432C79.7455 27.432 78.1335 27.8453 76.6868 28.672C75.2815 29.4987 74.1655 30.594 73.3388 31.958C72.5121 33.2807 72.0988 34.7687 72.0988 36.422C72.0988 38.1167 72.5121 39.646 73.3388 41.01C74.1655 42.3327 75.2815 43.3867 76.6868 44.172C78.1335 44.9573 79.7455 45.35 81.5228 45.35ZM104.093 50L129.079 6.6H135.217L110.231 50H104.093ZM132.303 50.744C130.361 50.744 128.625 50.31 127.095 49.442C125.566 48.574 124.347 47.3547 123.437 45.784C122.528 44.172 122.073 42.2913 122.073 40.142C122.073 37.91 122.528 36.0087 123.437 34.438C124.347 32.8673 125.566 31.648 127.095 30.78C128.625 29.912 130.34 29.478 132.241 29.478C134.225 29.478 135.961 29.912 137.449 30.78C138.979 31.648 140.177 32.8673 141.045 34.438C141.955 36.0087 142.409 37.91 142.409 40.142C142.409 42.2913 141.955 44.172 141.045 45.784C140.177 47.3547 138.979 48.574 137.449 49.442C135.92 50.31 134.205 50.744 132.303 50.744ZM132.179 46.156C133.13 46.156 133.977 45.9287 134.721 45.474C135.507 45.0193 136.127 44.358 136.581 43.49C137.077 42.5807 137.325 41.444 137.325 40.08C137.325 38.716 137.098 37.6 136.643 36.732C136.189 35.8227 135.569 35.1407 134.783 34.686C134.039 34.2313 133.192 34.004 132.241 34.004C131.373 34.004 130.547 34.2313 129.761 34.686C128.976 35.1407 128.335 35.8227 127.839 36.732C127.385 37.6 127.157 38.716 127.157 40.08C127.157 41.444 127.385 42.5807 127.839 43.49C128.335 44.358 128.955 45.0193 129.699 45.474C130.485 45.9287 131.311 46.156 132.179 46.156ZM107.441 27.184C105.499 27.184 103.763 26.75 102.233 25.882C100.704 25.014 99.4848 23.7947 98.5754 22.224C97.6661 20.612 97.2114 18.7107 97.2114 16.52C97.2114 14.3293 97.6661 12.4487 98.5754 10.878C99.4848 9.30733 100.704 8.088 102.233 7.22C103.804 6.352 105.54 5.918 107.441 5.918C109.384 5.918 111.099 6.352 112.587 7.22C114.117 8.088 115.336 9.30733 116.245 10.878C117.155 12.4487 117.609 14.3293 117.609 16.52C117.609 18.7107 117.155 20.612 116.245 22.224C115.336 23.7947 114.117 25.014 112.587 25.882C111.058 26.75 109.343 27.184 107.441 27.184ZM107.379 22.596C108.33 22.596 109.177 22.3687 109.921 21.914C110.707 21.4593 111.327 20.798 111.781 19.93C112.236 19.0207 112.463 17.884 112.463 16.52C112.463 15.156 112.236 14.0193 111.781 13.11C111.327 12.2007 110.707 11.5187 109.921 11.064C109.177 10.6093 108.351 10.382 107.441 10.382C106.532 10.382 105.685 10.6093 104.899 11.064C104.114 11.5187 103.473 12.2007 102.977 13.11C102.523 14.0193 102.295 15.156 102.295 16.52C102.295 17.8427 102.523 18.9587 102.977 19.868C103.473 20.7773 104.114 21.4593 104.899 21.914C105.685 22.3687 106.511 22.596 107.379 22.596Z" fill="#121212"/>
<path d="M1.746 89V78.524C1.746 77.948 1.842 77.48 2.034 77.12C2.226 76.748 2.508 76.478 2.88 76.31C3.264 76.13 3.732 76.04 4.284 76.04H5.256V77.336H4.518C4.074 77.336 3.75 77.426 3.546 77.606C3.354 77.786 3.258 78.104 3.258 78.56V89H1.746ZM0.378 81.26V79.982H5.508V81.26H0.378ZM9.92489 89.216C9.18089 89.216 8.56289 89.09 8.07089 88.838C7.59089 88.586 7.23089 88.25 6.99089 87.83C6.75089 87.398 6.63089 86.93 6.63089 86.426C6.63089 85.814 6.78689 85.298 7.09889 84.878C7.42289 84.458 7.87289 84.14 8.44889 83.924C9.03689 83.696 9.72089 83.582 10.5009 83.582H12.9129C12.9129 83.018 12.8229 82.55 12.6429 82.178C12.4749 81.806 12.2229 81.524 11.8869 81.332C11.5509 81.14 11.1429 81.044 10.6629 81.044C10.0869 81.044 9.58289 81.194 9.15089 81.494C8.73089 81.782 8.47289 82.202 8.37689 82.754H6.82889C6.90089 82.118 7.11689 81.578 7.47689 81.134C7.84889 80.69 8.31689 80.354 8.88089 80.126C9.44489 79.886 10.0389 79.766 10.6629 79.766C11.4909 79.766 12.1809 79.922 12.7329 80.234C13.2969 80.534 13.7169 80.96 13.9929 81.512C14.2809 82.052 14.4249 82.694 14.4249 83.438V89H13.0749L12.9849 87.398C12.8649 87.65 12.7089 87.89 12.5169 88.118C12.3369 88.334 12.1209 88.526 11.8689 88.694C11.6289 88.85 11.3469 88.976 11.0229 89.072C10.6989 89.168 10.3329 89.216 9.92489 89.216ZM10.1589 87.938C10.5909 87.938 10.9749 87.854 11.3109 87.686C11.6469 87.506 11.9349 87.266 12.1749 86.966C12.4269 86.666 12.6129 86.33 12.7329 85.958C12.8529 85.574 12.9129 85.184 12.9129 84.788V84.752H10.6269C10.0509 84.752 9.58289 84.824 9.22289 84.968C8.86289 85.1 8.60489 85.286 8.44889 85.526C8.29289 85.766 8.21489 86.042 8.21489 86.354C8.21489 86.678 8.28689 86.96 8.43089 87.2C8.58689 87.44 8.80889 87.626 9.09689 87.758C9.38489 87.878 9.73889 87.938 10.1589 87.938ZM20.1483 89.216C19.4163 89.216 18.7683 89.096 18.2043 88.856C17.6523 88.604 17.2083 88.25 16.8723 87.794C16.5363 87.338 16.3263 86.804 16.2423 86.192H17.7903C17.8623 86.516 17.9943 86.81 18.1863 87.074C18.3783 87.338 18.6423 87.548 18.9783 87.704C19.3143 87.86 19.7103 87.938 20.1663 87.938C20.5983 87.938 20.9463 87.878 21.2103 87.758C21.4863 87.626 21.6903 87.458 21.8223 87.254C21.9663 87.038 22.0383 86.804 22.0383 86.552C22.0383 86.18 21.9483 85.898 21.7683 85.706C21.6003 85.514 21.3483 85.364 21.0123 85.256C20.6763 85.148 20.2743 85.052 19.8063 84.968C19.4223 84.896 19.0383 84.8 18.6543 84.68C18.2823 84.548 17.9403 84.392 17.6283 84.212C17.3283 84.02 17.0883 83.78 16.9083 83.492C16.7283 83.204 16.6383 82.85 16.6383 82.43C16.6383 81.914 16.7703 81.458 17.0343 81.062C17.3103 80.654 17.6883 80.336 18.1683 80.108C18.6603 79.88 19.2423 79.766 19.9143 79.766C20.8743 79.766 21.6543 80 22.2543 80.468C22.8543 80.936 23.2083 81.614 23.3163 82.502H21.8223C21.7623 82.046 21.5643 81.692 21.2283 81.44C20.9043 81.176 20.4603 81.044 19.8963 81.044C19.3323 81.044 18.9003 81.158 18.6003 81.386C18.3123 81.614 18.1683 81.914 18.1683 82.286C18.1683 82.526 18.2523 82.736 18.4203 82.916C18.5883 83.096 18.8283 83.252 19.1403 83.384C19.4643 83.504 19.8543 83.612 20.3103 83.708C20.8983 83.816 21.4383 83.96 21.9303 84.14C22.4223 84.32 22.8183 84.584 23.1183 84.932C23.4303 85.28 23.5863 85.778 23.5863 86.426C23.5983 86.978 23.4603 87.464 23.1723 87.884C22.8843 88.304 22.4823 88.634 21.9663 88.874C21.4623 89.102 20.8563 89.216 20.1483 89.216ZM28.9056 89C28.3656 89 27.8976 88.916 27.5016 88.748C27.1056 88.58 26.7996 88.298 26.5836 87.902C26.3796 87.494 26.2776 86.948 26.2776 86.264V81.26H24.7116V79.982H26.2776L26.4756 77.822H27.7896V79.982H30.4176V81.26H27.7896V86.264C27.7896 86.828 27.9036 87.212 28.1316 87.416C28.3596 87.608 28.7616 87.704 29.3376 87.704H30.2916V89H28.9056ZM36.1232 89.216C35.2712 89.216 34.5152 89.024 33.8552 88.64C33.1952 88.244 32.6732 87.692 32.2892 86.984C31.9172 86.264 31.7312 85.436 31.7312 84.5C31.7312 83.54 31.9172 82.712 32.2892 82.016C32.6612 81.308 33.1772 80.756 33.8372 80.36C34.5092 79.964 35.2832 79.766 36.1592 79.766C37.0352 79.766 37.7852 79.964 38.4092 80.36C39.0332 80.756 39.5072 81.272 39.8312 81.908C40.1672 82.544 40.3352 83.24 40.3352 83.996C40.3352 84.116 40.3352 84.248 40.3352 84.392C40.3352 84.524 40.3292 84.674 40.3172 84.842H32.8652V83.672H38.8412C38.8052 82.844 38.5292 82.202 38.0132 81.746C37.5092 81.278 36.8792 81.044 36.1232 81.044C35.6072 81.044 35.1272 81.164 34.6832 81.404C34.2392 81.632 33.8792 81.968 33.6032 82.412C33.3392 82.856 33.2072 83.414 33.2072 84.086V84.59C33.2072 85.322 33.3452 85.94 33.6212 86.444C33.8972 86.948 34.2572 87.326 34.7012 87.578C35.1452 87.818 35.6192 87.938 36.1232 87.938C36.7472 87.938 37.2632 87.8 37.6712 87.524C38.0912 87.236 38.3972 86.846 38.5892 86.354H40.0832C39.9272 86.906 39.6692 87.398 39.3092 87.83C38.9492 88.25 38.4992 88.586 37.9592 88.838C37.4312 89.09 36.8192 89.216 36.1232 89.216ZM42.3572 89V79.982H43.7252L43.8512 81.71C44.0432 81.302 44.2952 80.954 44.6072 80.666C44.9312 80.378 45.3152 80.156 45.7592 80C46.2032 79.844 46.7072 79.766 47.2712 79.766V81.35H46.7852C46.3892 81.35 46.0112 81.404 45.6512 81.512C45.3032 81.608 44.9912 81.77 44.7152 81.998C44.4512 82.226 44.2412 82.538 44.0852 82.934C43.9412 83.318 43.8692 83.804 43.8692 84.392V89H42.3572ZM56.7179 89.216C55.9739 89.216 55.3559 89.09 54.8639 88.838C54.3839 88.586 54.0239 88.25 53.7839 87.83C53.5439 87.398 53.4239 86.93 53.4239 86.426C53.4239 85.814 53.5799 85.298 53.8919 84.878C54.2159 84.458 54.6659 84.14 55.2419 83.924C55.8299 83.696 56.5139 83.582 57.2939 83.582H59.7059C59.7059 83.018 59.6159 82.55 59.4359 82.178C59.2679 81.806 59.0159 81.524 58.6799 81.332C58.3439 81.14 57.9359 81.044 57.4559 81.044C56.8799 81.044 56.3759 81.194 55.9439 81.494C55.5239 81.782 55.2659 82.202 55.1699 82.754H53.6219C53.6939 82.118 53.9099 81.578 54.2699 81.134C54.6419 80.69 55.1099 80.354 55.6739 80.126C56.2379 79.886 56.8319 79.766 57.4559 79.766C58.2839 79.766 58.9739 79.922 59.5259 80.234C60.0899 80.534 60.5099 80.96 60.7859 81.512C61.0739 82.052 61.2179 82.694 61.2179 83.438V89H59.8679L59.7779 87.398C59.6579 87.65 59.5019 87.89 59.3099 88.118C59.1299 88.334 58.9139 88.526 58.6619 88.694C58.4219 88.85 58.1399 88.976 57.8159 89.072C57.4919 89.168 57.1259 89.216 56.7179 89.216ZM56.9519 87.938C57.3839 87.938 57.7679 87.854 58.1039 87.686C58.4399 87.506 58.7279 87.266 58.9679 86.966C59.2199 86.666 59.4059 86.33 59.5259 85.958C59.6459 85.574 59.7059 85.184 59.7059 84.788V84.752H57.4199C56.8439 84.752 56.3759 84.824 56.0159 84.968C55.6559 85.1 55.3979 85.286 55.2419 85.526C55.0859 85.766 55.0079 86.042 55.0079 86.354C55.0079 86.678 55.0799 86.96 55.2239 87.2C55.3799 87.44 55.6019 87.626 55.8899 87.758C56.1779 87.878 56.5319 87.938 56.9519 87.938ZM66.8153 89.216C66.1193 89.216 65.5073 89.078 64.9793 88.802C64.4633 88.514 64.0613 88.082 63.7733 87.506C63.4973 86.93 63.3593 86.204 63.3593 85.328V79.982H64.8713V85.166C64.8713 86.09 65.0633 86.78 65.4473 87.236C65.8433 87.692 66.4073 87.92 67.1393 87.92C67.6553 87.92 68.1113 87.8 68.5073 87.56C68.9153 87.308 69.2333 86.948 69.4613 86.48C69.7013 86 69.8213 85.424 69.8213 84.752V79.982H71.3333V89H69.9653L69.8753 87.416C69.5993 87.98 69.1913 88.424 68.6513 88.748C68.1113 89.06 67.4993 89.216 66.8153 89.216ZM77.8717 89.216C76.9957 89.216 76.2217 89.012 75.5497 88.604C74.8897 88.184 74.3737 87.62 74.0017 86.912C73.6417 86.192 73.4617 85.382 73.4617 84.482C73.4617 83.57 73.6417 82.76 74.0017 82.052C74.3737 81.344 74.8957 80.786 75.5677 80.378C76.2397 79.97 77.0137 79.766 77.8897 79.766C78.6217 79.766 79.2697 79.916 79.8337 80.216C80.3977 80.516 80.8297 80.936 81.1297 81.476V76.04H82.6417V89H81.2737L81.1477 87.524C80.9557 87.812 80.7097 88.088 80.4097 88.352C80.1097 88.604 79.7497 88.814 79.3297 88.982C78.9097 89.138 78.4237 89.216 77.8717 89.216ZM78.0337 87.902C78.6337 87.902 79.1617 87.764 79.6177 87.488C80.0857 87.2 80.4457 86.804 80.6977 86.3C80.9497 85.784 81.0757 85.184 81.0757 84.5C81.0757 83.816 80.9497 83.222 80.6977 82.718C80.4457 82.202 80.0857 81.8 79.6177 81.512C79.1617 81.224 78.6337 81.08 78.0337 81.08C77.4577 81.08 76.9357 81.224 76.4677 81.512C76.0117 81.8 75.6517 82.202 75.3877 82.718C75.1357 83.222 75.0097 83.816 75.0097 84.5C75.0097 85.184 75.1357 85.784 75.3877 86.3C75.6517 86.804 76.0117 87.2 76.4677 87.488C76.9357 87.764 77.4577 87.902 78.0337 87.902ZM85.3044 89V79.982H86.8164V89H85.3044ZM86.0604 78.038C85.7604 78.038 85.5084 77.942 85.3044 77.75C85.1124 77.546 85.0164 77.294 85.0164 76.994C85.0164 76.694 85.1124 76.454 85.3044 76.274C85.5084 76.082 85.7604 75.986 86.0604 75.986C86.3484 75.986 86.5944 76.082 86.7984 76.274C87.0024 76.454 87.1044 76.694 87.1044 76.994C87.1044 77.294 87.0024 77.546 86.7984 77.75C86.5944 77.942 86.3484 78.038 86.0604 78.038ZM93.463 89.216C92.611 89.216 91.855 89.024 91.195 88.64C90.535 88.244 90.013 87.692 89.629 86.984C89.257 86.264 89.071 85.436 89.071 84.5C89.071 83.54 89.257 82.712 89.629 82.016C90.001 81.308 90.517 80.756 91.177 80.36C91.849 79.964 92.623 79.766 93.499 79.766C94.375 79.766 95.125 79.964 95.749 80.36C96.373 80.756 96.847 81.272 97.171 81.908C97.507 82.544 97.675 83.24 97.675 83.996C97.675 84.116 97.675 84.248 97.675 84.392C97.675 84.524 97.669 84.674 97.657 84.842H90.205V83.672H96.181C96.145 82.844 95.869 82.202 95.353 81.746C94.849 81.278 94.219 81.044 93.463 81.044C92.947 81.044 92.467 81.164 92.023 81.404C91.579 81.632 91.219 81.968 90.943 82.412C90.679 82.856 90.547 83.414 90.547 84.086V84.59C90.547 85.322 90.685 85.94 90.961 86.444C91.237 86.948 91.597 87.326 92.041 87.578C92.485 87.818 92.959 87.938 93.463 87.938C94.087 87.938 94.603 87.8 95.011 87.524C95.431 87.236 95.737 86.846 95.929 86.354H97.423C97.267 86.906 97.009 87.398 96.649 87.83C96.289 88.25 95.839 88.586 95.299 88.838C94.771 89.09 94.159 89.216 93.463 89.216ZM99.6971 89V79.982H101.065L101.155 81.584C101.443 81.02 101.857 80.576 102.397 80.252C102.937 79.928 103.549 79.766 104.233 79.766C104.929 79.766 105.535 79.91 106.051 80.198C106.567 80.474 106.969 80.9 107.257 81.476C107.545 82.052 107.689 82.778 107.689 83.654V89H106.177V83.816C106.177 82.904 105.979 82.22 105.583 81.764C105.187 81.296 104.623 81.062 103.891 81.062C103.375 81.062 102.913 81.188 102.505 81.44C102.109 81.692 101.791 82.052 101.551 82.52C101.323 82.988 101.209 83.564 101.209 84.248V89H99.6971ZM114.119 89.216C113.267 89.216 112.499 89.018 111.815 88.622C111.143 88.226 110.609 87.674 110.213 86.966C109.829 86.258 109.637 85.436 109.637 84.5C109.637 83.552 109.829 82.724 110.213 82.016C110.609 81.308 111.143 80.756 111.815 80.36C112.499 79.964 113.267 79.766 114.119 79.766C115.199 79.766 116.093 80.048 116.801 80.612C117.521 81.164 117.983 81.908 118.187 82.844H116.639C116.507 82.28 116.207 81.842 115.739 81.53C115.271 81.218 114.725 81.062 114.101 81.062C113.597 81.062 113.123 81.194 112.679 81.458C112.235 81.71 111.875 82.094 111.599 82.61C111.323 83.114 111.185 83.744 111.185 84.5C111.185 85.052 111.263 85.544 111.419 85.976C111.587 86.408 111.803 86.774 112.067 87.074C112.343 87.362 112.655 87.578 113.003 87.722C113.363 87.866 113.729 87.938 114.101 87.938C114.521 87.938 114.905 87.872 115.253 87.74C115.601 87.596 115.895 87.392 116.135 87.128C116.387 86.852 116.555 86.528 116.639 86.156H118.187C117.995 87.068 117.533 87.806 116.801 88.37C116.081 88.934 115.187 89.216 114.119 89.216ZM124.313 89.216C123.461 89.216 122.705 89.024 122.045 88.64C121.385 88.244 120.863 87.692 120.479 86.984C120.107 86.264 119.921 85.436 119.921 84.5C119.921 83.54 120.107 82.712 120.479 82.016C120.851 81.308 121.367 80.756 122.027 80.36C122.699 79.964 123.473 79.766 124.349 79.766C125.225 79.766 125.975 79.964 126.599 80.36C127.223 80.756 127.697 81.272 128.021 81.908C128.357 82.544 128.525 83.24 128.525 83.996C128.525 84.116 128.525 84.248 128.525 84.392C128.525 84.524 128.519 84.674 128.507 84.842H121.055V83.672H127.031C126.995 82.844 126.719 82.202 126.203 81.746C125.699 81.278 125.069 81.044 124.313 81.044C123.797 81.044 123.317 81.164 122.873 81.404C122.429 81.632 122.069 81.968 121.793 82.412C121.529 82.856 121.397 83.414 121.397 84.086V84.59C121.397 85.322 121.535 85.94 121.811 86.444C122.087 86.948 122.447 87.326 122.891 87.578C123.335 87.818 123.809 87.938 124.313 87.938C124.937 87.938 125.453 87.8 125.861 87.524C126.281 87.236 126.587 86.846 126.779 86.354H128.273C128.117 86.906 127.859 87.398 127.499 87.83C127.139 88.25 126.689 88.586 126.149 88.838C125.621 89.09 125.009 89.216 124.313 89.216ZM138.91 93.176C138.094 93.176 137.374 93.068 136.75 92.852C136.126 92.648 135.634 92.33 135.274 91.898C134.926 91.466 134.752 90.932 134.752 90.296C134.752 90.032 134.806 89.744 134.914 89.432C135.034 89.12 135.232 88.814 135.508 88.514C135.796 88.214 136.198 87.944 136.714 87.704L137.758 88.316C137.134 88.58 136.72 88.88 136.516 89.216C136.324 89.552 136.228 89.864 136.228 90.152C136.228 90.548 136.342 90.878 136.57 91.142C136.81 91.406 137.128 91.604 137.524 91.736C137.932 91.868 138.394 91.934 138.91 91.934C139.414 91.934 139.852 91.856 140.224 91.7C140.596 91.556 140.884 91.352 141.088 91.088C141.292 90.824 141.394 90.518 141.394 90.17C141.394 89.762 141.238 89.414 140.926 89.126C140.614 88.85 140.026 88.688 139.162 88.64C138.454 88.592 137.86 88.526 137.38 88.442C136.912 88.358 136.516 88.262 136.192 88.154C135.88 88.034 135.616 87.902 135.4 87.758C135.196 87.614 135.01 87.464 134.842 87.308V86.894L136.606 85.148L137.902 85.616L136.102 87.254L136.336 86.624C136.468 86.72 136.594 86.81 136.714 86.894C136.834 86.978 136.996 87.05 137.2 87.11C137.416 87.17 137.704 87.224 138.064 87.272C138.424 87.32 138.904 87.368 139.504 87.416C140.32 87.476 140.974 87.62 141.466 87.848C141.97 88.076 142.33 88.382 142.546 88.766C142.774 89.15 142.888 89.6 142.888 90.116C142.888 90.62 142.744 91.106 142.456 91.574C142.18 92.042 141.748 92.426 141.16 92.726C140.572 93.026 139.822 93.176 138.91 93.176ZM138.892 86.174C138.136 86.174 137.488 86.03 136.948 85.742C136.42 85.454 136.018 85.07 135.742 84.59C135.466 84.11 135.328 83.57 135.328 82.97C135.328 82.382 135.466 81.848 135.742 81.368C136.03 80.888 136.438 80.504 136.966 80.216C137.494 79.916 138.136 79.766 138.892 79.766C139.648 79.766 140.29 79.916 140.818 80.216C141.346 80.504 141.748 80.888 142.024 81.368C142.3 81.848 142.438 82.382 142.438 82.97C142.438 83.57 142.3 84.11 142.024 84.59C141.748 85.07 141.346 85.454 140.818 85.742C140.29 86.03 139.648 86.174 138.892 86.174ZM138.892 84.932C139.528 84.932 140.032 84.764 140.404 84.428C140.788 84.092 140.98 83.606 140.98 82.97C140.98 82.346 140.788 81.866 140.404 81.53C140.032 81.194 139.528 81.026 138.892 81.026C138.256 81.026 137.74 81.194 137.344 81.53C136.96 81.866 136.768 82.346 136.768 82.97C136.768 83.606 136.96 84.092 137.344 84.428C137.728 84.764 138.244 84.932 138.892 84.932ZM140.35 81.26L139.9 79.982H143.608V81.116L140.35 81.26ZM145.312 89V79.982H146.68L146.806 81.71C146.998 81.302 147.25 80.954 147.562 80.666C147.886 80.378 148.27 80.156 148.714 80C149.158 79.844 149.662 79.766 150.226 79.766V81.35H149.74C149.344 81.35 148.966 81.404 148.606 81.512C148.258 81.608 147.946 81.77 147.67 81.998C147.406 82.226 147.196 82.538 147.04 82.934C146.896 83.318 146.824 83.804 146.824 84.392V89H145.312ZM155.656 89.216C154.816 89.216 154.06 89.024 153.388 88.64C152.716 88.244 152.182 87.692 151.786 86.984C151.402 86.276 151.21 85.448 151.21 84.5C151.21 83.54 151.408 82.706 151.804 81.998C152.2 81.29 152.734 80.744 153.406 80.36C154.09 79.964 154.852 79.766 155.692 79.766C156.544 79.766 157.306 79.964 157.978 80.36C158.65 80.744 159.178 81.29 159.562 81.998C159.946 82.706 160.138 83.54 160.138 84.5C160.138 85.448 159.94 86.276 159.544 86.984C159.16 87.692 158.626 88.244 157.942 88.64C157.27 89.024 156.508 89.216 155.656 89.216ZM155.656 87.92C156.184 87.92 156.67 87.794 157.114 87.542C157.558 87.29 157.912 86.906 158.176 86.39C158.452 85.874 158.59 85.244 158.59 84.5C158.59 83.732 158.458 83.096 158.194 82.592C157.93 82.088 157.576 81.71 157.132 81.458C156.688 81.194 156.208 81.062 155.692 81.062C155.188 81.062 154.708 81.194 154.252 81.458C153.808 81.71 153.448 82.088 153.172 82.592C152.896 83.096 152.758 83.732 152.758 84.5C152.758 85.244 152.896 85.874 153.172 86.39C153.448 86.906 153.802 87.29 154.234 87.542C154.678 87.794 155.152 87.92 155.656 87.92ZM163.76 89L161.114 79.982H162.626L164.696 87.65L164.372 87.632L166.658 79.982H168.368L170.654 87.632L170.312 87.65L172.382 79.982H173.912L171.266 89H169.718L167.342 80.99H167.684L165.308 89H163.76ZM179.146 89C178.606 89 178.138 88.916 177.742 88.748C177.346 88.58 177.04 88.298 176.824 87.902C176.62 87.494 176.518 86.948 176.518 86.264V81.26H174.952V79.982H176.518L176.716 77.822H178.03V79.982H180.658V81.26H178.03V86.264C178.03 86.828 178.144 87.212 178.372 87.416C178.6 87.608 179.002 87.704 179.578 87.704H180.532V89H179.146ZM182.596 89V76.04H184.108V81.512C184.408 80.972 184.828 80.546 185.368 80.234C185.92 79.922 186.526 79.766 187.186 79.766C187.87 79.766 188.47 79.91 188.986 80.198C189.502 80.474 189.898 80.9 190.174 81.476C190.462 82.052 190.606 82.784 190.606 83.672V89H189.112V83.834C189.112 82.922 188.92 82.232 188.536 81.764C188.152 81.296 187.594 81.062 186.862 81.062C186.346 81.062 185.878 81.188 185.458 81.44C185.038 81.692 184.708 82.058 184.468 82.538C184.228 83.006 184.108 83.582 184.108 84.266V89H182.596Z" fill="#121212"/>
</svg>
